<?xml version="1.0" encoding="utf-8"?>
<!-- Generator: Adobe Illustrator 27.7.0, SVG Export Plug-In . SVG Version: 6.00 Build 0)  -->
<svg version="1.1" id="Layer_1" xmlns="http://www.w3.org/2000/svg" xmlns:xlink="http://www.w3.org/1999/xlink" x="0px" y="0px"
	 viewBox="0 0 319.34 103.09" style="enable-background:new 0 0 319.34 103.09;" xml:space="preserve">
<style type="text/css">
	.st0{fill:none;stroke:#1C75BC;stroke-width:2;stroke-linejoin:round;stroke-miterlimit:10;}
	.st1{fill:#FFFFFF;stroke:#FFFFFF;stroke-width:2;stroke-miterlimit:10;}
	.st2{font-family:'CenturyGothic';}
	.st3{font-size:55.5072px;}
</style>
<g>
	<path class="st0" d="M319.31,85.9c-4.11-0.13-8.24-0.21-12.35-0.2c-5.9,0.02-11.77-0.29-17.67-0.37
		c-10.18-0.14-20.35-0.38-30.52-0.82c-3.03-0.17-6.07-0.27-9.1-0.35c-1.47-0.04-2.93-0.08-4.4-0.12c-3.02-0.08-6.04-0.17-9.06-0.25
		c-6.12-0.17-12.25-0.3-18.37-0.56c-3.86-0.16-7.72-0.16-11.59-0.32c-3.94-0.16-7.88-0.36-11.82-0.44c-2.16-0.05-4.31-0.1-6.47-0.17
		c-6.01-0.18-12.02-0.38-18.03-0.59c-7.79-0.27-15.59-0.45-23.39-0.72c-3.94-0.14-7.88-0.3-11.82-0.5c-3.71-0.2-7.42,0.1-11.13-0.1
		c-4.94-0.26-9.88-0.78-14.82-1.02c-6.2-0.31-12.36-1.24-18.55-1.74c-4.26-0.34-8.51-1.5-12.77-2c-4.29-0.5-8.48-1.26-12.73-2.16
		c-3.78-0.8-7.67-1.84-11.41-0.84c-4.29,1.14-7.95,5.26-8.55,10.19c-0.17,1.39-0.01,3.71-1.06,4.66c-0.11-0.24-0.25-0.59-0.27-0.88
		c-0.27-5.27-0.4-10.54-0.66-15.81c-0.35-7.24-0.21-14.49-0.3-21.74c-0.09-7.15-0.23-14.3-0.31-21.46
		c-0.06-6.28-0.12-12.56-0.25-18.83c-0.05-2.17-0.12-4.34-0.24-6.51V1l-0.22,1.48l-0.22,5.19c0,14.32-0.16,28.65-0.32,42.96
		c-0.06,5.66-0.17,11.33-0.34,16.99c-0.08,2.75-1.23,4.72-2.27,7.12c-1.11,2.58-1.56,5.44-2,8.27c-0.2,1.27-0.35,2.55-0.58,3.81
		c-0.08,0.46-0.13,3.42-0.42,3.79c-0.33,0.42-0.36-1.98-0.44-2.45c-0.12-0.68-0.13-1.39-0.16-2.09
		c-0.59-14.38-0.61-28.77-0.78-43.16c-0.09-7.72-0.24-15.43-0.45-23.14c-0.04-1.36-0.07-2.72-0.11-4.09V8.9V4.95l-0.22-1.36
		l-0.22,2.1v6.67c0,0-0.22,9.63-0.22,9.63c0,14.42-0.1,28.81-0.32,43.23c-0.03,1.41-0.06,2.81-0.19,4.22
		c-0.29,3.17-1.44,6.13-2.17,9.19c-1.18,4.97-1.26,10.19-2.09,15.25c-0.03,0.15-0.04,0.26-0.15,0.34c-0.39-0.47-0.41-1.63-0.47-2.26
		c-0.08-0.85-0.11-1.71-0.13-2.57c-0.38-14.47-0.55-28.93-0.67-43.4c-0.07-7.59-0.18-15.19-0.34-22.78
		c-0.01-0.49-0.02-0.98-0.03-1.47v-8.52l-0.22-6.05V4.46l-0.22,1.6l-0.22,6.3c0,0,0,10.74,0,10.74c0,11.35-0.17,22.68-0.35,34.03
		c-0.08,5.06,0.24,10.21-0.23,15.24c-0.37,3.92-3.14,8.3-5.44,11.08c-0.22,0.28-0.44,0.55-0.67,0.82c-2.21,2.63-4.98,4.56-7.55,6.72
		c-3.92,3.29-7.44,7.17-10.45,11.51"/>
</g>
<text transform="matrix(0.9766 0 0 1 65.4402 57.9126)" class="st1 st2 st3">Fong Lab</text>
</svg>
